<?xml version="1.0" encoding="UTF-8" standalone="no"?>
<svg id="svg2" xmlns:rdf="http://www.w3.org/1999/02/22-rdf-syntax-ns#" xmlns="http://www.w3.org/2000/svg" height="115.3004" width="487.025" version="1.1" xmlns:cc="http://creativecommons.org/ns#" xmlns:dc="http://purl.org/dc/elements/1.1/" fill="#0078d6">
 <metadata id="metadata28">
  <rdf:RDF>
   <cc:Work rdf:about="">
    <dc:format>image/svg+xml</dc:format>
    <dc:type rdf:resource="http://purl.org/dc/dcmitype/StillImage"/>
    <dc:title/>
   </cc:Work>
  </rdf:RDF>
 </metadata>
 <g id="g4186" fill="#0078d6" transform="translate(113.6877 -58.23806)">
  <path id="svg_2" d="m107.8744 84.63468-17.5492 62.13199h-8.53373l-12.78286-45.40678c-0.54763-1.934407-0.88228-4.043757-0.99636-6.325507h-0.1724c-0.1724 2.13977-0.55016 4.2187-1.12566 6.239307l-12.86654 45.49298h-8.45006l-18.19821-62.13199h8.014l13.2164 47.66064c0.54762 1.99273 0.89495 4.07165 1.03946 6.23931h0.21803c0.14451-1.5313 0.58819-3.61023 1.34116-6.23931l13.73612-47.66064h6.97454l13.17076 48.00798c0.46143 1.64539 0.80622 3.58234 1.03947 5.80577h0.1724c0.11409-1.50088 0.50451-3.49361 1.17129-5.97818l12.69413-47.83304h7.887255v-0.003z"/>
  <path id="svg_3" d="m117.6606 91.13259c-1.27273 0-2.35527-0.43353-3.25024-1.30059-0.89494-0.86707-1.34115-1.96231-1.34115-3.29333 0-1.32595 0.44875-2.43386 1.34115-3.31614 0.8975-0.87974 1.97752-1.32087 3.25024-1.32087 1.30058 0 2.40344 0.44367 3.31614 1.32087 0.90761 0.88228 1.36396 1.98766 1.36396 3.31614 0 1.27271-0.45635 2.35527-1.36396 3.25023-0.9127 0.89748-2.01556 1.3437-3.31614 1.3437zm3.46571 55.63408h-7.10638v-44.36732h7.10638v44.36732z"/>
  <path id="svg_4" d="m168.8807 146.7667h-7.10638v-25.30204c0-9.41602-3.43783-14.12402-10.31096-14.12402-3.55193 0-6.49284 1.33609-8.81769 4.00827-2.32738 2.67218-3.48854 6.04409-3.48854 10.11575v25.30204h-7.10638v-44.36731h7.10638v7.36497h0.1724c3.3491-5.60296 8.20161-8.40444 14.55755-8.40444 4.85252 0 8.56418 1.5668 11.13495 4.7004 2.57328 3.1336 3.85613 7.6616 3.85613 13.58147v27.12491h0.003z"/>
  <path id="svg_5" d="m219.429 146.7667h-7.10638v-7.5399h-0.1724c-3.29332 5.71958-8.37908 8.57937-15.25222 8.57937-5.57507 0-10.02954-1.98513-13.36597-5.9579-3.33388-3.97024-5.00463-9.38052-5.00463-16.22576 0-7.33709 1.84822-13.21639 5.54718-17.63284 3.69643-4.42152 8.61994-6.62975 14.77559-6.62975 6.09226 0 10.52646 2.39838 13.30005 7.19258h0.1724v-27.46971h7.10638v65.68391zm-7.10385-20.05909v-6.54355c0-3.57981-1.1865-6.612-3.55192-9.0991-2.37048-2.48203-5.37224-3.72686-9.0129-3.72686-4.33279 0-7.74273 1.58962-10.22477 4.76632-2.48456 3.17924-3.72685 7.5678-3.72685 13.17076 0 5.11365 1.19158 9.1498 3.57474 12.10847 2.38062 2.9612 5.58014 4.4418 9.59602 4.4418 3.95756 0 7.16975-1.42736 9.64165-4.28968 2.46682-2.85726 3.70403-6.47002 3.70403-10.82816z"/>
  <path id="svg_6" d="m250.4912 147.8061c-6.55878 0-11.79157-2.07132-15.70606-6.21649-3.91446-4.14517-5.86911-9.64165-5.86911-16.4869 0-7.45117 2.0358-13.27216 6.10996-17.46043 4.06917-4.18828 9.57323-6.28495 16.50721-6.28495 6.61199 0 11.77886 2.03582 15.48802 6.11001 3.71159 4.06912 5.56744 9.72025 5.56744 16.94071 0 7.07849-2.00033 12.74483-6.001 17.00663-4.00066 4.26179-9.36531 6.39142-16.09646 6.39142zm0.51973-40.46806c-4.56606 0-8.17626 1.55159-10.8307 4.6573-2.6595 3.10825-3.98547 7.3878-3.98547 12.84624 0 5.25816 1.34118 9.4008 4.03113 12.43553 2.68484 3.02965 6.28239 4.54828 10.78758 4.54828 4.59394 0 8.12304-1.4882 10.59491-4.46462 2.46936-2.97388 3.70404-7.20525 3.70404-12.69412 0-5.54718-1.23468-9.81912-3.70404-12.82596-2.47187-2.99923-6.00353-4.50265-10.59745-4.50265z"/>
  <path id="svg_7" d="m336.6221 102.3994-13.3 44.36731h-7.36754l-9.13967-31.75939c-0.34735-1.2144-0.58057-2.58344-0.69215-4.11475h-0.1724c-0.0862 1.03946-0.39046 2.38062-0.91019 4.03109l-9.92048 31.84559h-7.10638l-13.43189-44.36732h7.45118l9.18277 33.35916c0.28646 1.01157 0.4893 2.34006 0.60593 3.98545h0.34733c0.0862-1.27017 0.34733-2.62655 0.78084-4.07165l10.22479-33.27549h6.49791l9.1853 33.44789c0.28646 1.06988 0.5045 2.39837 0.65154 3.98545h0.34736c0.0558-1.12566 0.3017-2.45414 0.73523-3.98545l9.0129-33.44789h7.01762z"/>
  <path id="svg_8" d="m339.9155 145.1618v-7.6261c3.86885 2.86232 8.13065 4.28968 12.78032 4.28968 6.23931 0 9.3577-2.07892 9.3577-6.23931 0-1.18397-0.2662-2.18794-0.79861-3.01191-0.53238-0.82396-1.25752-1.55159-2.16515-2.18794-0.91014-0.63382-1.98002-1.20679-3.20456-1.71131-1.22705-0.50452-2.55302-1.03186-3.96515-1.58202-1.96486-0.78086-3.69138-1.5668-5.17705-2.36287-1.48819-0.79354-2.72799-1.68849-3.72686-2.68739-0.99634-0.99637-1.7468-2.12963-2.25383-3.40234-0.50455-1.27017-0.7581-2.75584-0.7581-4.46208 0-2.07893 0.47666-3.92207 1.42738-5.52437 0.9558-1.60483 2.22598-2.94599 3.81306-4.03108 1.58962-1.08257 3.40236-1.89893 5.44072-2.44908 2.0358-0.54762 4.13501-0.82143 6.30016-0.82143 3.84095 0 7.27875 0.66678 10.31348 1.99273v7.19257c-3.26797-2.13723-7.02271-3.20712-11.26677-3.20712-1.32848 0-2.52513 0.15211-3.59502 0.45635-1.06986 0.30169-1.98512 0.73016-2.75077 1.27777-0.76563 0.55016-1.35635 1.2068-1.77469 1.96991-0.42086 0.76819-0.62875 1.61244-0.62875 2.53528 0 1.15608 0.20789 2.12202 0.62875 2.90542 0.41834 0.77834 1.03185 1.47046 1.84061 2.07893 0.81129 0.6034 1.79244 1.15355 2.94599 1.64286 1.15862 0.49184 2.47192 1.02679 3.94745 1.60483 1.95974 0.75298 3.72429 1.52624 5.28351 2.31724 1.55917 0.79354 2.88765 1.69103 3.98543 2.68739 1.09777 0.9989 1.94202 2.14738 2.53527 3.44291 0.59072 1.30313 0.88735 2.84711 0.88735 4.63701 0 2.19555-0.47914 4.10208-1.45018 5.71958-0.96845 1.62004-2.2589 2.9612-3.87641 4.02856-1.62007 1.06989-3.48093 1.86343-5.59031 2.38315-2.10427 0.51974-4.31501 0.78087-6.62718 0.78087-4.57113 0.008-8.52867-0.87467-11.87777-2.63669z"/>
  <polygon id="svg_23" transform="matrix(2.535275 0 0 2.535275 -109.6877 62.23806)" points="18.502 20.219 41.727 20.219 41.727 0 18.502 3.389"/>
  <polygon id="svg_24" transform="matrix(2.535275 0 0 2.535275 -109.6877 62.23806)" points="16.865 20.219 16.865 3.627 0 6.087 0 20.219"/>
  <polygon id="svg_25" transform="matrix(2.535275 0 0 2.535275 -109.6877 62.23806)" points="16.865 21.855 0 21.855 0 36.167 16.865 38.655"/>
  <polygon id="svg_26" transform="matrix(2.535275 0 0 2.535275 -109.6877 62.23806)" points="18.502 21.855 18.502 38.897 41.727 42.323 41.727 21.855"/>
 </g>
</svg>
